<?xml version="1.0" standalone="no"?>
<!DOCTYPE svg PUBLIC "-//W3C//DTD SVG 20010904//EN"
 "http://www.w3.org/TR/2001/REC-SVG-20010904/DTD/svg10.dtd">
<svg version="1.0" xmlns="http://www.w3.org/2000/svg"
 width="640.000000pt" height="640.000000pt" viewBox="0 0 640.000000 640.000000"
 preserveAspectRatio="xMidYMid meet">
<metadata>
Created by potrace 1.16, written by Peter Selinger 2001-2019
</metadata>
<g transform="translate(0.000000,640.000000) scale(0.100000,-0.100000)"
fill="#000000" stroke="none">
<path d="M2918 5553 c-39 -3 -48 -8 -48 -22 0 -12 10 -21 25 -25 l25 -6 0
-144 c0 -143 0 -143 -25 -154 -14 -6 -25 -19 -25 -27 0 -13 15 -15 88 -14 117
2 155 22 95 51 -26 12 -28 18 -28 68 0 49 2 55 20 52 27 -5 42 -28 64 -97 l19
-60 76 -3 c62 -2 76 0 76 12 0 8 -12 21 -27 28 -18 8 -33 28 -43 56 -9 23 -28
54 -42 69 l-26 26 34 32 c26 25 34 41 34 66 0 88 -68 109 -292 92z"/>
<path d="M3337 5553 c-13 -13 -7 -28 16 -38 21 -10 22 -14 22 -155 0 -143 0
-145 -22 -148 -14 -2 -23 -10 -23 -22 0 -23 27 -30 123 -30 70 0 77 2 77 20 0
11 -7 20 -15 20 -26 0 -33 33 -34 156 -2 134 2 154 30 154 12 0 19 7 19 19 0
14 -10 20 -46 25 -61 8 -139 8 -147 -1z"/>
<path d="M2594 5523 c-7 -5 -37 -79 -67 -165 -65 -184 -70 -195 -97 -203 -11
-4 -20 -15 -20 -27 0 -19 4 -20 63 -13 34 3 70 9 80 12 25 7 17 37 -11 41 -24
4 -27 17 -13 56 8 20 19 26 56 32 52 7 62 2 71 -42 5 -26 2 -32 -15 -37 -12
-3 -21 -12 -21 -21 0 -18 11 -19 123 -10 63 6 77 10 77 24 0 9 -11 22 -24 28
-24 10 -39 44 -120 262 -19 53 -28 65 -47 68 -13 1 -29 -1 -35 -5z"/>
<path d="M3930 5488 c-55 -29 -77 -59 -89 -122 -18 -99 29 -199 113 -241 85
-43 183 -26 216 36 16 29 -2 49 -28 31 -9 -7 -32 -20 -49 -29 -31 -16 -35 -16
-68 0 -47 22 -66 56 -72 126 -7 76 3 126 29 151 44 41 89 19 128 -63 38 -77
55 -70 55 23 l0 75 -30 3 c-16 2 -49 10 -73 18 -58 19 -80 18 -132 -8z"/>
<path d="M2273 5472 c-58 -13 -73 -20 -73 -34 0 -11 7 -18 18 -18 33 0 42 -21
42 -99 l-1 -76 -55 60 c-31 33 -67 75 -82 93 -28 36 -36 37 -135 11 -44 -12
-48 -39 -7 -49 25 -6 25 -7 28 -125 3 -142 0 -158 -33 -173 -29 -14 -36 -57
-7 -48 18 5 78 20 125 30 32 8 39 46 8 46 -34 0 -42 23 -39 121 l3 93 90 -106
c95 -112 107 -122 136 -113 17 6 19 19 19 160 0 84 3 161 6 170 4 9 17 21 30
26 14 5 24 17 24 29 0 23 1 23 -97 2z"/>
<path d="M4260 5431 c0 -11 9 -22 19 -26 26 -8 27 -14 23 -171 -3 -125 -4
-134 -23 -134 -12 0 -19 -7 -19 -18 0 -15 17 -23 92 -40 106 -24 133 -17 83
23 -29 24 -30 26 -33 132 -4 134 2 173 28 173 23 0 36 18 22 32 -8 8 -158 47
-184 48 -5 0 -8 -9 -8 -19z"/>
<path d="M4520 5336 c0 -80 22 -99 52 -46 12 21 25 30 43 30 l25 0 0 -150 0
-150 -25 0 c-18 0 -25 -5 -25 -18 0 -15 20 -25 95 -47 66 -19 99 -25 106 -18
7 7 1 17 -20 32 l-31 22 0 145 c0 114 3 144 13 144 18 0 38 -25 60 -72 26 -59
47 -50 47 21 l0 59 -92 30 c-127 42 -202 62 -227 62 -18 0 -21 -6 -21 -44z"/>
<path d="M1825 5365 c-5 -2 -70 -22 -143 -45 -108 -33 -133 -44 -130 -58 2 -9
12 -17 23 -17 19 0 20 -8 23 -130 3 -149 0 -171 -28 -180 -11 -4 -20 -15 -20
-27 0 -15 4 -18 18 -13 9 3 82 26 161 51 79 25 148 47 153 50 4 3 8 32 8 65 0
75 -22 80 -51 13 -21 -46 -44 -62 -112 -79 l-27 -7 0 66 c0 63 1 66 27 72 25
7 45 -7 56 -39 2 -6 9 -7 15 -3 8 5 12 36 12 87 0 63 -3 79 -15 79 -8 0 -17
-11 -21 -25 -6 -26 -39 -55 -61 -55 -9 0 -13 18 -13 59 l0 58 47 13 c45 13 47
13 67 -13 27 -33 44 -34 52 -3 14 56 -5 93 -41 81z"/>
<path d="M4900 5255 c0 -8 13 -28 29 -43 44 -42 111 -210 111 -279 0 -54 -1
-55 -25 -49 -20 5 -25 3 -25 -12 0 -14 22 -27 93 -55 51 -20 96 -37 100 -37
17 0 5 31 -18 46 -22 14 -25 24 -25 73 0 49 5 63 43 119 30 44 51 65 71 70 16
4 31 13 34 20 5 17 -129 75 -142 61 -8 -7 -5 -16 12 -29 12 -10 22 -22 22 -27
0 -17 -51 -83 -60 -78 -9 6 -42 74 -55 114 -5 17 -2 21 15 21 15 0 20 5 18 16
-2 11 -35 29 -88 50 -97 38 -110 40 -110 19z"/>
<path d="M1418 5232 c-48 -19 -68 -32 -68 -44 0 -13 8 -18 25 -18 14 0 25 -3
25 -7 0 -14 -62 -198 -70 -206 -7 -8 -60 129 -60 157 0 8 9 20 20 26 23 12 27
40 5 40 -8 0 -53 -18 -101 -40 -87 -40 -103 -62 -52 -68 22 -3 30 -17 73 -135
27 -73 52 -136 57 -142 6 -6 18 -4 34 5 21 12 36 46 84 194 41 123 67 187 84
205 24 25 35 62 19 60 -5 0 -38 -12 -75 -27z"/>
<path d="M3095 4931 c-38 -15 -207 -81 -375 -146 -168 -64 -395 -152 -505
-195 -110 -42 -348 -135 -530 -205 -181 -70 -338 -131 -347 -136 -16 -9 -18
-27 -18 -167 1 -909 252 -1792 705 -2481 36 -55 69 -102 73 -105 8 -5 122 194
122 212 0 4 -24 47 -54 95 -283 450 -458 936 -565 1567 -30 174 -53 463 -49
609 l3 114 140 54 c77 30 232 89 345 133 113 43 416 160 674 259 l468 181 667
-257 c366 -141 728 -280 805 -309 76 -29 144 -58 152 -65 18 -15 18 -92 -1
-339 -61 -771 -286 -1466 -651 -2015 -30 -45 -54 -86 -54 -91 0 -5 43 -31 95
-57 l95 -47 35 48 c19 26 68 103 108 172 305 513 500 1118 578 1795 24 215 38
678 20 689 -6 4 -62 27 -123 50 -109 42 -335 129 -908 351 -151 58 -351 135
-445 171 -93 36 -214 83 -269 104 -54 22 -103 40 -110 39 -6 0 -42 -13 -81
-28z"/>
<path d="M3927 4212 c-18 -33 -72 -73 -117 -86 -14 -4 -131 -11 -260 -15 -218
-8 -240 -10 -310 -35 -138 -49 -232 -146 -255 -264 -11 -56 -12 -58 -71 -89
-76 -41 -112 -83 -151 -179 -58 -140 -148 -233 -268 -274 -33 -12 -79 -30
-102 -42 l-42 -20 -27 21 c-31 25 -81 27 -111 6 -33 -23 -57 -96 -50 -154 8
-64 46 -140 92 -179 41 -37 55 -40 55 -12 0 11 13 34 28 51 23 26 38 33 80 37
43 4 58 0 96 -22 51 -30 71 -33 62 -10 -12 31 15 98 55 137 22 20 46 37 53 37
8 0 26 -16 40 -35 32 -41 46 -44 46 -10 0 28 23 89 37 98 4 3 25 8 46 12 37 7
38 7 54 -34 15 -39 33 -55 33 -30 0 7 12 31 28 55 25 41 30 44 73 44 34 0 50
-5 66 -22 19 -21 53 -80 53 -93 0 -14 -49 -2 -82 20 -20 14 -40 25 -44 25 -7
0 0 -68 10 -92 6 -13 -1 -19 -35 -29 -40 -13 -45 -12 -101 19 -33 18 -64 30
-69 26 -11 -7 -2 -63 12 -79 16 -17 9 -32 -21 -45 -26 -11 -34 -9 -75 14 -25
15 -49 25 -54 22 -9 -6 -1 -52 14 -89 6 -14 -4 -22 -51 -44 -107 -49 -187 -41
-216 23 -6 13 -15 24 -19 24 -4 0 -17 -26 -29 -57 -27 -72 -21 -133 17 -171
14 -14 30 -44 35 -66 11 -50 49 -101 90 -122 19 -10 57 -17 94 -17 53 -1 74 5
150 42 124 60 136 63 179 41 41 -21 45 -12 12 26 -32 37 -107 43 -225 19 -94
-19 -144 -13 -150 17 -4 22 46 32 84 18 33 -13 64 -8 187 27 88 25 166 28 212
8 20 -8 20 -8 1 13 -31 36 -80 45 -190 38 -55 -3 -98 -4 -95 -2 54 51 208 165
253 188 217 110 423 -32 325 -223 -40 -80 -151 -176 -374 -327 -169 -114 -272
-198 -410 -337 -166 -165 -276 -319 -386 -537 -34 -68 -38 -82 -27 -96 207
-260 434 -477 693 -664 119 -85 265 -177 292 -184 26 -7 131 54 294 169 263
187 501 412 703 666 l67 84 -129 67 c-158 81 -239 138 -320 224 -69 74 -103
134 -122 215 -16 66 -8 171 16 226 l18 40 7 -75 c7 -78 29 -136 78 -198 26
-34 136 -122 151 -122 5 0 -5 30 -23 68 -31 65 -32 70 -30 192 2 146 38 328
64 321 8 -2 24 -6 37 -9 l22 -4 -20 43 c-20 44 -28 153 -12 163 4 2 34 -4 66
-15 58 -20 82 -20 154 2 36 12 42 34 12 44 -39 12 -150 144 -150 179 0 3 21 3
48 0 55 -7 120 12 136 40 9 14 8 20 -4 24 -34 12 -88 82 -98 127 -14 66 -7 81
43 94 51 13 76 36 47 45 -10 4 -45 33 -77 65 -44 45 -64 75 -82 123 -12 34
-23 69 -23 76 0 18 36 49 77 68 28 12 38 12 75 -1 23 -8 44 -12 47 -9 9 8 -38
93 -73 131 -54 60 -114 86 -200 84 -39 0 -92 -6 -117 -12 -42 -11 -49 -10 -91
15 -66 38 -177 74 -258 82 -38 3 -70 10 -70 14 0 4 24 18 54 30 43 17 86 23
203 30 157 8 200 20 281 80 32 24 79 87 70 95 -2 2 -23 -11 -47 -30 -24 -19
-60 -40 -80 -46 -20 -6 -137 -15 -261 -19 -262 -9 -318 -22 -417 -98 -18 -13
-33 -20 -33 -14 0 17 72 74 125 98 49 23 85 32 280 75 55 12 123 30 150 40
120 45 200 123 193 191 l-3 33 -18 -33z m-1089 -732 c8 -77 -20 -130 -86 -164
-31 -16 -102 -31 -102 -22 0 3 20 25 44 50 24 24 61 73 82 110 21 36 43 65 49
63 5 -2 11 -19 13 -37z m452 -1549 c83 -66 142 -141 190 -244 90 -191 76 -454
-33 -647 -36 -64 -165 -197 -219 -225 -36 -19 -37 -19 -75 1 -63 32 -184 161
-225 239 -46 89 -59 136 -20 72 61 -102 140 -181 226 -229 41 -23 65 -22 101
2 36 23 145 130 145 142 0 5 -25 -12 -55 -37 -56 -45 -105 -75 -125 -75 -7 0
-10 149 -10 470 0 259 3 470 6 470 14 0 82 -46 137 -92 31 -27 57 -45 57 -41
0 17 -102 123 -147 154 -54 38 -66 36 -160 -30 -67 -47 -140 -128 -176 -196
-30 -56 -17 -4 15 61 52 104 158 217 242 258 33 16 43 12 126 -53z"/>
</g>
</svg>
